<svg class="icon" style="width: auto;height: auto;vertical-align: middle;fill: currentColor;overflow: hidden;" viewBox="0 0 1024 1024" version="1.1" xmlns="http://www.w3.org/2000/svg" p-id="1744"><path d="M399.676783 13.890505h223.84698C587.448424 5.796038 549.974041 1.498975 511.500342 1.498975c-38.373768 0.099932-75.848151 4.396994-111.823559 12.39153z" fill="#00D995" p-id="1745"></path><path d="M341.41661 30.579096l340.467258 0.199864c-18.987021-6.695423-38.373768-12.291598-58.360105-16.788524h-223.84698c-19.886406 4.297063-39.373085 9.893237-58.260173 16.58866z" fill="#01D996" p-id="1746"></path><path d="M299.94496 47.267688l423.310627 0.099932C709.764809 41.271787 695.874305 35.675612 681.883868 30.579096l-340.467258-0.099931c-14.090368 5.096516-27.980872 10.692691-41.47165 16.788523z" fill="#01D997" p-id="1747"></path><path d="M266.467844 64.056212l490.064995 0.099931c-10.892554-5.89597-21.984971-11.492144-33.477115-16.788523l-423.310628-0.099932c-11.192349 5.296379-22.284766 10.792622-33.277252 16.788524z" fill="#01D898" p-id="1748"></path><path d="M238.187177 80.744803l546.826193 0.099932c-9.293647-5.796038-18.687226-11.392212-28.280668-16.788523L266.667708 63.95628c-9.793305 5.396311-19.186884 10.992486-28.480531 16.788523z" fill="#01D899" p-id="1749"></path><path d="M213.404118 97.533327l596.39231 0.099932c-8.094467-5.796038-16.288865-11.392212-24.783058-16.788524L238.187177 80.744803c-8.394262 5.396311-16.688592 10.992486-24.783059 16.788524z" fill="#01D89A" p-id="1750"></path><path d="M191.419147 114.221919l640.262321 0.099931c-7.195081-5.796038-14.490095-11.292281-21.984971-16.788523l-596.39231-0.099932c-7.295013 5.396311-14.689958 10.992486-21.88504 16.788524z" fill="#01D79B" p-id="1751"></path><path d="M171.632673 130.91051l679.835269 0.099932c-6.395628-5.696106-12.991119-11.292281-19.786474-16.788523l-640.262321-0.099932c-6.595491 5.496243-13.290914 10.992486-19.786474 16.788523z" fill="#01D79C" p-id="1752"></path><path d="M153.844833 147.599102l715.610813 0.099932c-5.796038-5.696106-11.791939-11.292281-17.887772-16.788524l-679.835269-0.099931c-6.095833 5.496243-12.091734 11.092417-17.887772 16.788523z" fill="#02D79D" p-id="1753"></path><path d="M137.555968 164.387626l748.188543 0.099931c-5.396311-5.696106-10.692691-11.292281-16.288865-16.788523l-715.710745-0.099932c-5.496243 5.496243-10.992486 11.092417-16.188933 16.788524z" fill="#02D79E" p-id="1754"></path><path d="M122.566215 181.076217l777.968185 0.099932c-4.796721-5.696106-9.793305-11.292281-14.789889-16.788523H137.555968c-5.196448 5.496243-10.0931 10.992486-14.989753 16.688591z" fill="#02D69F" p-id="1755"></path><path d="M108.875573 197.864741l805.349468 0.099932c-4.496926-5.696106-8.993852-11.292281-13.690641-16.788524l-777.968185-0.099932c-4.696789 5.496243-9.193715 11.092417-13.690642 16.788524z" fill="#02D6A0" p-id="1756"></path><path d="M96.284181 214.453401l830.432321 0.099932c-4.097199-5.696106-8.194398-11.292281-12.591392-16.788524l-805.349468-0.099931c-4.097199 5.696106-8.394262 11.292281-12.491461 16.788523z" fill="#02D6A1" p-id="1757"></path><path d="M84.792037 231.241924l853.516541 0.099932c-3.797404-5.696106-7.69474-11.192349-11.492144-16.788523l-830.432322-0.099932c-3.897336 5.496243-7.794672 11.092417-11.592075 16.788523z" fill="#02D5A2" p-id="1758"></path><path d="M74.199278 247.930516l874.702059 0.199864c-3.397677-5.696106-6.995218-11.192349-10.592759-16.788524l-853.516541-0.099932c-3.697472 5.496243-7.195081 11.092417-10.592759 16.688592z" fill="#02D5A3" p-id="1759"></path><path d="M64.505904 264.71904l894.188738 0.199863c-3.197814-5.596174-6.395628-11.192349-9.693373-16.788523L74.29921 247.930516c-3.397677 5.596174-6.595491 11.092417-9.793306 16.788524z" fill="#02D5A4" p-id="1760"></path><path d="M55.611984 281.407632l911.976579 0.199863c-2.898019-5.596174-5.796038-11.192349-8.893921-16.788524l-894.188738-0.199863c-3.097882 5.596174-6.095833 11.192349-8.89392 16.788524z" fill="#03D4A5" p-id="1761"></path><path d="M47.517517 298.196155l928.165512 0.199863c-2.598224-5.596174-5.396311-11.192349-8.094466-16.788523l-911.976579-0.199863c-2.798087 5.596174-5.496243 11.192349-8.094467 16.788523z" fill="#03D4A6" p-id="1762"></path><path d="M40.022641 314.784815l942.955401 0.199863c-2.39836-5.596174-4.796721-11.192349-7.394945-16.788523l-928.165511-0.199863c-2.498292 5.696106-4.996584 11.192349-7.394945 16.788523z" fill="#03D4A7" p-id="1763"></path><path d="M33.427149 331.573339l956.346248 0.199863c-2.198497-5.596174-4.297063-11.192349-6.595491-16.788524L40.222504 314.784815c-2.498292 5.596174-4.696789 11.192349-6.795355 16.788524z" fill="#03D4A8" p-id="1764"></path><path d="M27.331316 348.361862l968.338051 0.199863c-1.898702-5.596174-3.897336-11.192349-6.095833-16.788523l-956.346248-0.199863c-1.998634 5.496243-3.897336 11.092417-5.89597 16.788523z" fill="#03D3A9" p-id="1765"></path><path d="M22.034937 365.050454l979.030741 0.199863c-1.698839-5.596174-3.397677-11.192349-5.396311-16.788523l-968.338051-0.199864c-1.79877 5.596174-3.597541 11.192349-5.296379 16.788524z" fill="#03D3AA" p-id="1766"></path><path d="M17.338148 381.838977l988.424319 0.199864c-1.498975-5.596174-3.097882-11.192349-4.696789-16.788524l-979.030741-0.199863c-1.598907 5.596174-3.197814 11.092417-4.696789 16.788523z" fill="#03D3AB" p-id="1767"></path><path d="M13.240949 398.527569l996.618717 0.199863c-1.299112-5.596174-2.598224-11.192349-4.097199-16.788523L17.338148 381.739046c-1.498975 5.596174-2.898019 11.192349-4.097199 16.788523z" fill="#04D2AC" p-id="1768"></path><path d="M9.643408 415.316093l1003.713867 0.199863c-1.099249-5.596174-2.298429-11.192349-3.497609-16.788524l-996.618717-0.199863c-1.299112 5.596174-2.498292 11.192349-3.597541 16.788524z" fill="#04D2AD" p-id="1769"></path><path d="M6.745389 431.904753l1009.609837 0.199863c-0.899385-5.596174-1.79877-11.192349-2.997951-16.788523L9.643408 415.116229c-1.099249 5.596174-1.998634 11.192349-2.898019 16.788524z" fill="#04D2AE" p-id="1770"></path><path d="M4.347028 448.693276l1014.306627 0.199863c-0.699522-5.596174-1.498975-11.192349-2.398361-16.788523L6.645457 431.904753c-0.799453 5.596174-1.598907 11.192349-2.298429 16.788523z" fill="#04D1AF" p-id="1771"></path><path d="M2.548258 465.381868l1018.004099 0.199863c-0.59959-5.596174-1.099249-11.192349-1.798771-16.788523L4.347028 448.593344c-0.699522 5.596174-1.299112 11.192349-1.79877 16.788524z" fill="#04D1B0" p-id="1772"></path><path d="M1.249146 482.170391l1020.502391 0.199864c-0.299795-5.596174-0.799453-11.192349-1.299112-16.688592L2.548258 465.381868c-0.499658 5.596174-0.999317 11.192349-1.299112 16.788523z" fill="#04D1B1" p-id="1773"></path><path d="M0.549624 498.858983l1021.901435 0.199863c-0.099932-5.596174-0.299795-11.192349-0.699522-16.688591L1.249146 482.170391c-0.299795 5.596174-0.59959 11.092417-0.699522 16.688592z" fill="#04D1B2" p-id="1774"></path><path d="M0.549624 498.858983c-0.099932 4.496926-0.199863 9.193715-0.199863 13.890505v2.898019l1022.20123 0.199863v-3.097882c0-4.596858-0.099932-9.093784-0.199864-13.690642" fill="#05D0B3" p-id="1775"></path><path d="M0.749488 532.336098l1021.501707 0.199864c0.199863-5.596174 0.299795-11.192349 0.299796-16.788524L0.449693 515.547575c0 5.596174 0.099932 11.192349 0.299795 16.788523z" fill="#05D0B4" p-id="1776"></path><path d="M1.748805 549.02469l1019.702937 0.199864c0.299795-5.596174 0.699522-11.192349 0.899385-16.788524L0.749488 532.236167c0.199863 5.696106 0.499658 11.192349 0.999317 16.788523z" fill="#05D0B5" p-id="1777"></path><path d="M3.047916 565.813214l1016.804919 0.199863c0.59959-5.596174 0.999317-11.192349 1.498975-16.788523L1.748805 549.02469c0.299795 5.596174 0.799453 11.192349 1.299111 16.788524z" fill="#05CFB6" p-id="1778"></path><path d="M5.146482 582.501805l1012.807651 0.199864c0.799453-5.596174 1.399044-11.192349 2.098565-16.788524L3.147848 565.713282c0.499658 5.696106 1.19918 11.292281 1.998634 16.788523z" fill="#05CFB7" p-id="1779"></path><path d="M7.644774 599.290329l1007.711135 0.199863c0.899385-5.596174 1.79877-11.092417 2.598224-16.788523L5.146482 582.501805c0.699522 5.596174 1.598907 11.192349 2.498292 16.788524z" fill="#05CFB8" p-id="1780"></path><path d="M10.842588 615.878989l1001.415439 0.199863c1.099249-5.596174 2.198497-11.092417 3.197814-16.788523H7.644774c0.999317 5.596174 1.998634 11.192349 3.197814 16.58866z" fill="#05CEB9" p-id="1781"></path><path d="M14.440129 632.667512l993.920562 0.199864c1.399044-5.496243 2.598224-11.092417 3.797404-16.788524l-1001.415439-0.199863c1.19918 5.596174 2.498292 11.192349 3.697473 16.788523z" fill="#06CEBA" p-id="1782"></path><path d="M18.837123 649.356104l985.226505 0.199864c1.498975-5.496243 2.997951-11.092417 4.297063-16.788524L14.440129 632.567581c1.399044 5.696106 2.898019 11.292281 4.396994 16.788523z" fill="#06CEBB" p-id="1783"></path><path d="M23.733776 666.144628l975.4332 0.199863c1.698839-5.496243 3.397677-11.092417 4.896652-16.788523l-985.226505-0.199864c1.598907 5.696106 3.197814 11.192349 4.896653 16.788524z" fill="#06CEBD" p-id="1784"></path><path d="M29.32995 682.833219l964.240851 0.199864c1.898702-5.496243 3.797404-11.092417 5.596175-16.788524l-975.4332-0.199863c1.79877 5.696106 3.597541 11.292281 5.596174 16.788523z" fill="#06CDBE" p-id="1785"></path><path d="M35.625647 699.621743l951.74939 0.199863c2.198497-5.496243 4.197131-11.092417 6.295696-16.788523l-964.240851-0.199864c1.898702 5.696106 3.997267 11.292281 6.195765 16.788524z" fill="#06CDBF" p-id="1786"></path><path d="M42.520933 716.410266l937.958817 0.199864c2.39836-5.496243 4.696789-11.092417 6.995218-16.788524l-951.849321-0.199863c2.098565 5.596174 4.496926 11.192349 6.895286 16.788523z" fill="#06CDC0" p-id="1787"></path><path d="M50.115741 732.998927l922.669269 0.199863c2.598224-5.496243 5.096516-11.092417 7.69474-16.788524l-938.058749-0.199863c2.498292 5.696106 5.096516 11.292281 7.69474 16.788524z" fill="#06CCC1" p-id="1788"></path><path d="M58.510003 749.78745l905.880746 0.199863c2.898019-5.496243 5.696106-11.092417 8.29433-16.788523l-922.669269-0.199863c2.798087 5.696106 5.696106 11.192349 8.494193 16.788523z" fill="#07CCC2" p-id="1789"></path><path d="M67.703718 766.476042l887.493315 0.199863c3.197814-5.496243 6.295696-11.092417 9.093784-16.788523l-905.880746-0.199864c3.097882 5.696106 6.195765 11.292281 9.293647 16.788524z" fill="#07CCC3" p-id="1790"></path><path d="M77.696887 783.264565l867.506978 0.199864c3.397677-5.496243 6.695423-11.092417 10.0931-16.788524L67.80365 766.476042c3.197814 5.696106 6.49556 11.292281 9.893237 16.788523z" fill="#07CBC4" p-id="1791"></path><path d="M88.689372 799.953157l845.621939 0.199863c3.797404-5.496243 7.394945-11.092417 10.992485-16.788523l-867.606909-0.199863c3.597541 5.696106 7.195081 11.292281 10.992485 16.788523z" fill="#07CBC5" p-id="1792"></path><path d="M100.581243 816.641749l821.938129 0.199863c4.097199-5.496243 7.994535-11.092417 11.89187-16.788523l-845.621938-0.199864c3.697472 5.796038 7.594808 11.392212 11.791939 16.788524z" fill="#07CBC6" p-id="1793"></path><path d="M113.472431 833.430272l795.955889 0.099932c4.496926-5.496243 8.793988-11.092417 12.891188-16.788524l-821.938128-0.199863c4.297063 5.89597 8.594125 11.492144 13.091051 16.888455z" fill="#07CBC7" p-id="1794"></path><path d="M127.462867 850.118864l767.775154 0.099932c4.796721-5.496243 9.49351-11.092417 14.190299-16.788524l-795.955889-0.099931c4.496926 5.696106 9.193715 11.292281 13.990436 16.788523z" fill="#07CAC8" p-id="1795"></path><path d="M142.852347 866.907388l737.096126 0.099931c5.296379-5.496243 10.392895-11.092417 15.38948-16.788523l-767.775154-0.099932c4.896653 5.696106 10.0931 11.292281 15.289548 16.788524z" fill="#08CAC9" p-id="1796"></path><path d="M159.740802 883.595979l703.419147 0.099932c5.696106-5.496243 11.392212-11.092417 16.888455-16.788523H142.852347c5.496243 5.696106 11.092417 11.292281 16.888455 16.688591z" fill="#08CACA" p-id="1797"></path><path d="M178.228164 900.384503l666.344491 0.099931c6.295696-5.496243 12.391529-10.992486 18.487363-16.788523l-703.419148-0.099932c6.095833 5.696106 12.391529 11.292281 18.587294 16.788524z" fill="#08C9CB" p-id="1798"></path><path d="M198.71416 916.973163l625.3725 0.099932c6.995218-5.396311 13.790573-10.992486 20.585927-16.788524H178.228164c6.695423 5.796038 13.490778 11.392212 20.485996 16.688592z" fill="#08C9CC" p-id="1799"></path><path d="M210.606031 925.867083l601.688689 0.099932c3.997267-2.898019 7.994535-5.89597 11.891871-8.89392l-625.372499-0.099932c3.797404 3.097882 7.794672 6.095833 11.791939 8.89392zM511.500342 1024c112.423148 0 216.452035-36.275202 300.794378-97.833122l-601.688689-0.099932c84.442276 61.457988 188.371231 97.933054 300.894311 97.933054z" fill="#08C9CC" p-id="1800"></path><path d="M624.023421 253.826486h-336.769786c-18.787157 0-34.076705 15.289548-34.076705 34.076705v398.227774l70.351908 52.763931 50.36557-37.674246 54.362838 38.073973 47.867278-42.071241V550.923392c0-33.77691 27.481214-61.358056 61.358056-61.358056h120.517615V287.903191c0.099932-18.787157-15.189616-34.076705-33.976774-34.076705M316.133893 327.975798h122.416317c7.594808 0 13.690641 6.095833 13.690641 13.590709s-6.095833 13.590709-13.690641 13.59071H316.133893c-7.494877 0-13.590709-6.095833-13.59071-13.59071s6.095833-13.590709 13.59071-13.590709m122.516249 166.286328H316.133893c-7.494877 0-13.590709-6.095833-13.59071-13.59071s6.095833-13.590709 13.59071-13.590709h122.416317c7.594808 0 13.690641 6.095833 13.690641 13.590709s-6.095833 13.590709-13.590709 13.59071m47.367619-71.750952H316.133893c-7.494877 0-13.590709-6.095833-13.59071-13.590709s6.095833-13.590709 13.59071-13.59071h169.883868c7.494877 0 13.690641 6.095833 13.690641 13.59071s-6.195765 13.590709-13.690641 13.590709" fill="#FFFFFF" p-id="1801"></path><path d="M760.330243 516.846687H537.682444c-18.787157 0-34.076705 15.289548-34.076706 34.076705v162.988582c0 18.787157 15.289548 34.076705 34.076706 34.076706H632.917342l86.640773 43.470284c4.197131 2.498292 8.89392 3.797404 13.690641 3.797404 4.097199 0 8.29433-0.999317 12.191666-2.997951 8.89392-4.596858 14.490095-13.590709 14.490094-23.68381v-20.585927h0.59959c18.787157 0 34.076705-15.289548 34.076706-34.076706V550.923392c-0.199863-18.787157-15.489412-34.076705-34.276569-34.076705M611.731824 648.656582c-11.092417 0-20.086269-8.993852-20.086269-20.086269 0-11.092417 8.993852-20.186201 20.086269-20.186201 11.092417 0 20.086269 8.993852 20.086269 20.186201 0 11.092417-8.993852 20.086269-20.086269 20.086269m74.549039 0c-11.092417 0-20.086269-8.993852-20.086269-20.086269 0-11.092417 8.993852-20.186201 20.086269-20.186201 11.092417 0 20.086269 8.993852 20.086269 20.186201 0 11.092417-8.993852 20.086269-20.086269 20.086269" fill="#FFFFFF" p-id="1802"></path><path d="M503.505807 637.664097h90.138382c-1.399044-2.698156-2.098565-5.796038-2.098566-9.093784 0-11.092417 8.993852-20.086269 20.086269-20.086269 11.092417 0 20.086269 8.993852 20.086269 20.086269 0 3.297746-0.799453 6.295696-2.098565 9.093784h38.673563c-1.399044-2.698156-2.098565-5.796038-2.098565-9.093784 0-11.092417 8.993852-20.086269 20.086269-20.086269 11.092417 0 20.086269 8.993852 20.086269 20.086269 0 3.297746-0.799453 6.295696-2.098566 9.093784h90.138382V579.104128l-290.901141-0.59959v59.159559z" fill="#FFFFFF" p-id="1803"></path><path d="M503.505807 578.504538l290.901141 0.59959V576.605836l-290.901141-0.59959z" fill="#FFFFFF" p-id="1804"></path><path d="M503.505807 576.006246l290.901141 0.59959v-2.498292l-290.901141-0.59959z" fill="#FCFFFE" p-id="1805"></path><path d="M503.505807 573.507954l290.901141 0.59959v-2.598224l-290.901141-0.499659z" fill="#FAFFFE" p-id="1806"></path><path d="M503.505807 571.009661l290.901141 0.499659v-2.498292l-290.901141-0.599591z" fill="#F7FEFD" p-id="1807"></path><path d="M503.505807 568.411437l290.901141 0.599591v-2.498293l-290.901141-0.59959z" fill="#F4FEFD" p-id="1808"></path><path d="M503.505807 565.913145l290.901141 0.59959v-2.498292l-290.901141-0.59959z" fill="#F1FEFC" p-id="1809"></path><path d="M503.505807 563.414853l290.901141 0.59959v-2.498292l-290.901141-0.59959z" fill="#EFFEFC" p-id="1810"></path><path d="M503.505807 560.916561l290.901141 0.59959v-2.598224l-290.901141-0.59959z" fill="#ECFEFB" p-id="1811"></path><path d="M503.505807 558.318337l290.901141 0.59959v-2.498292l-290.901141-0.59959z" fill="#E9FEFB" p-id="1812"></path><path d="M503.505807 555.820045l290.901141 0.59959v-2.498292l-290.901141-0.59959z" fill="#E7FDFA" p-id="1813"></path><path d="M503.505807 550.923392v2.398361l290.901141 0.59959v-2.498292l-290.901141-0.59959c0.099932 0 0 0.099932 0 0.099931z" fill="#E4FDFA" p-id="1814"></path><path d="M503.70567 548.325168c-0.099932 0.799453-0.099932 1.698839-0.099932 2.498293l290.901142 0.59959v-0.399727c0-0.699522 0-1.399044-0.099932-2.098566l-290.701278-0.59959z" fill="#E1FDF9" p-id="1815"></path><path d="M794.107153 546.326535l-290.20162-0.599591c-0.099932 0.799453-0.199863 1.698839-0.299795 2.498293l290.701279 0.59959c0-0.799453-0.099932-1.598907-0.199864-2.498292z" fill="#DFFDF9" p-id="1816"></path><path d="M793.707427 543.828242l-289.202304-0.59959c-0.199863 0.799453-0.399727 1.698839-0.499658 2.498292l290.20162 0.599591c-0.199863-0.799453-0.399727-1.698839-0.499658-2.498293z" fill="#DCFDF8" p-id="1817"></path><path d="M793.007905 541.32995l-287.903191-0.59959c-0.299795 0.799453-0.499658 1.698839-0.699522 2.498292l289.202303 0.59959c-0.099932-0.899385-0.299795-1.698839-0.59959-2.498292z" fill="#D9FCF7" p-id="1818"></path><path d="M792.208451 538.831658l-286.204352-0.59959c-0.299795 0.799453-0.59959 1.698839-0.899385 2.498292l287.903191 0.59959c-0.199863-0.899385-0.499658-1.698839-0.799454-2.498292z" fill="#D7FCF7" p-id="1819"></path><path d="M791.109203 536.233434l-283.905924-0.59959c-0.399727 0.799453-0.799453 1.698839-1.099249 2.498292l286.104421 0.59959c-0.399727-0.799453-0.699522-1.698839-1.099248-2.498292z" fill="#D4FCF6" p-id="1820"></path><path d="M789.710159 533.735142l-281.107836-0.59959c-0.499658 0.799453-0.999317 1.698839-1.399044 2.498292l283.905924 0.59959c-0.399727-0.799453-0.899385-1.698839-1.399044-2.498292z" fill="#D1FCF6" p-id="1821"></path><path d="M788.111252 531.23685l-277.810091-0.59959c-0.59959 0.799453-1.19918 1.698839-1.698838 2.498292l281.107836 0.59959c-0.499658-0.899385-0.999317-1.698839-1.598907-2.498292z" fill="#CFFCF5" p-id="1822"></path><path d="M786.112618 528.738558l-273.712891-0.499659c-0.699522 0.799453-1.399044 1.598907-2.098566 2.498292l277.810091 0.59959c-0.699522-0.999317-1.299112-1.79877-1.998634-2.598223z" fill="#CCFBF5" p-id="1823"></path><path d="M783.714258 526.140334l-268.816239-0.499659c-0.899385 0.799453-1.698839 1.598907-2.498292 2.498293l273.712891 0.499658c-0.799453-0.799453-1.598907-1.698839-2.39836-2.498292z" fill="#C9FBF4" p-id="1824"></path><path d="M780.616376 523.642042l-262.620475-0.499659c-1.099249 0.799453-2.198497 1.598907-3.197814 2.498292l268.816239 0.499659c-0.899385-0.899385-1.898702-1.698839-2.99795-2.498292z" fill="#C7FBF4" p-id="1825"></path><path d="M776.71904 521.143749l-254.526008-0.499658c-1.498975 0.699522-2.798087 1.598907-4.197131 2.498292l262.620475 0.499659c-1.19918-0.899385-2.498292-1.79877-3.897336-2.498293z" fill="#C4FBF3" p-id="1826"></path><path d="M770.923002 518.545526l-242.23441-0.499659c-2.298429 0.59959-4.396994 1.498975-6.49556 2.498292l254.526008 0.499659c-1.79877-0.999317-3.797404-1.79877-5.796038-2.498292z" fill="#C1FBF3" p-id="1827"></path><path d="M760.330243 516.846687H537.582512c-3.097882 0-6.095833 0.399727-8.89392 1.19918l242.23441 0.499659c-3.397677-1.099249-6.895286-1.698839-10.592759-1.698839z" fill="#BFFBF2" p-id="1828"></path><path d="M719.458183 791.359032c4.197131 2.598224 8.89392 3.797404 13.690641 3.797404 4.197131 0 8.29433-0.999317 12.191666-2.898019 7.794672-3.997267 12.991119-11.392212 14.190299-19.886406l-78.246511-0.199863 38.173905 19.186884z" fill="#FFFFFF" p-id="1829"></path><path d="M681.184347 772.172148l78.246511 0.199863c0-0.299795 0.099932-0.699522 0.099931-0.999317l-80.345076-0.199863 1.998634 0.999317z" fill="#FFFFFF" p-id="1830"></path><path d="M679.185713 771.272763l80.345076 0.199863c0-0.299795 0.099932-0.699522 0.099932-0.999317l-82.443642-0.199863 1.998634 0.999317z" fill="#FCFFFE" p-id="1831"></path><path d="M677.187079 770.273446l82.443642 0.199863v-0.999317l-84.442276-0.199863 1.998634 0.999317z" fill="#FAFFFE" p-id="1832"></path><path d="M675.188445 769.274129l84.442276 0.199863v-0.999316l-86.540841-0.199864 2.098565 0.999317z" fill="#F7FEFD" p-id="1833"></path><path d="M673.289743 768.274812l86.44091 0.099932v-0.999317l-88.439543-0.099932z" fill="#F4FEFD" p-id="1834"></path><path d="M671.29111 767.275495l88.439543 0.099932v-0.999317l-90.438177-0.099932z" fill="#F1FEFC" p-id="1835"></path><path d="M669.292476 766.276178l90.438177 0.099932v-0.999317l-92.436811-0.099931z" fill="#EFFEFC" p-id="1836"></path><path d="M667.293842 765.276862l92.436811 0.099931v-0.999317l-94.435445-0.099931z" fill="#ECFEFB" p-id="1837"></path><path d="M665.295208 764.277545l94.435445 0.099931v-0.899385l-96.434078-0.199863z" fill="#E9FEFB" p-id="1838"></path><path d="M663.296575 763.278228l96.434078 0.199863v-0.999317l-98.432712-0.199863z" fill="#E7FDFA" p-id="1839"></path><path d="M661.297941 762.278911l98.432712 0.199863v-0.999317l-100.431346-0.199863z" fill="#E4FDFA" p-id="1840"></path><path d="M659.299307 761.279594l100.431346 0.199863v-0.999316l-102.42998-0.199864z" fill="#E1FDF9" p-id="1841"></path><path d="M657.300673 760.280277l102.42998 0.199864v-0.999317l-104.428613-0.199864z" fill="#DFFDF9" p-id="1842"></path><path d="M655.30204 759.28096l104.428613 0.199864v-0.999317l-106.427247-0.199864z" fill="#DCFDF8" p-id="1843"></path><path d="M653.303406 758.281643l106.427247 0.199864v-0.999317l-108.425881-0.199863z" fill="#D9FCF7" p-id="1844"></path><path d="M651.304772 757.282327l108.425881 0.199863v-0.999317l-110.424515-0.199863z" fill="#D7FCF7" p-id="1845"></path><path d="M649.306138 756.28301l110.424515 0.199863v-0.999317l-112.423148-0.199863z" fill="#D4FCF6" p-id="1846"></path><path d="M647.307505 755.283693l112.423148 0.199863v-0.999317l-114.32185-0.199863z" fill="#D1FCF6" p-id="1847"></path><path d="M645.408803 754.284376l114.32185 0.199863v-0.999317l-116.320484-0.199863z" fill="#CFFCF5" p-id="1848"></path><path d="M643.410169 753.285059l116.320484 0.199863v-0.999316l-118.319118-0.199864z" fill="#CCFBF5" p-id="1849"></path><path d="M641.411535 752.285742l118.319118 0.199864v-0.999317l-120.317752-0.199864z" fill="#C9FBF4" p-id="1850"></path><path d="M639.412901 751.286425l120.317752 0.199864v-0.999317l-122.316385-0.199864z" fill="#C7FBF4" p-id="1851"></path><path d="M637.414268 750.287108l122.316385 0.199864v-0.999317l-124.315019-0.199863z" fill="#C4FBF3" p-id="1852"></path><path d="M635.415634 749.287792l124.315019 0.199863v-0.999317l-126.313653-0.199863z" fill="#C1FBF3" p-id="1853"></path><path d="M535.68381 747.888748c0.59959 0 1.299112 0.099932 1.998634 0.099932H632.917342l0.59959 0.299795 126.313653 0.299795v-0.499659h1.898702-226.045477z" fill="#BFFBF2" p-id="1854"></path></svg>