<svg class="icon" style="width: auto;height: auto;vertical-align: middle;fill: currentColor;overflow: hidden;" viewBox="0 0 1024 1024" version="1.1" xmlns="http://www.w3.org/2000/svg" p-id="3961"><path d="M399.6 12.5h224C587.5 4.4 550 0.1 511.5 0.1c-38.4 0.1-75.9 4.4-111.9 12.4z" fill="#00D995" p-id="3962"></path><path d="M341.3 29.2l340.7 0.2c-19-6.7-38.4-12.3-58.4-16.8h-224c-19.9 4.3-39.4 9.9-58.3 16.6z" fill="#01D996" p-id="3963"></path><path d="M299.8 45.9l423.6 0.1C709.9 39.9 696 34.3 682 29.2l-340.7-0.1c-14.1 5.1-28 10.7-41.5 16.8z" fill="#01D997" p-id="3964"></path><path d="M266.3 62.7l490.4 0.1c-10.9-5.9-22-11.5-33.5-16.8l-423.6-0.1c-11.2 5.3-22.3 10.8-33.3 16.8z" fill="#01D898" p-id="3965"></path><path d="M238 79.4l547.2 0.1c-9.3-5.8-18.7-11.4-28.3-16.8l-490.4-0.1c-9.8 5.4-19.2 11-28.5 16.8z" fill="#01D899" p-id="3966"></path><path d="M213.2 96.2l596.8 0.1c-8.1-5.8-16.3-11.4-24.8-16.8L238 79.4c-8.4 5.4-16.7 11-24.8 16.8z" fill="#01D89A" p-id="3967"></path><path d="M191.2 112.9l640.7 0.1c-7.2-5.8-14.5-11.3-22-16.8l-596.8-0.1c-7.3 5.4-14.7 11-21.9 16.8z" fill="#01D79B" p-id="3968"></path><path d="M171.4 129.6l680.3 0.1c-6.4-5.7-13-11.3-19.8-16.8l-640.7-0.1c-6.6 5.5-13.3 11-19.8 16.8z" fill="#01D79C" p-id="3969"></path><path d="M153.6 146.3l716.1 0.1c-5.8-5.7-11.8-11.3-17.9-16.8l-680.3-0.1c-6.1 5.5-12.1 11.1-17.9 16.8z" fill="#02D79D" p-id="3970"></path><path d="M137.3 163.1l748.7 0.1c-5.4-5.7-10.7-11.3-16.3-16.8l-716.2-0.1c-5.5 5.5-11 11.1-16.2 16.8z" fill="#02D79E" p-id="3971"></path><path d="M122.3 179.8l778.5 0.1c-4.8-5.7-9.8-11.3-14.8-16.8H137.3c-5.2 5.5-10.1 11-15 16.7z" fill="#02D69F" p-id="3972"></path><path d="M108.6 196.6l805.9 0.1c-4.5-5.7-9-11.3-13.7-16.8l-778.5-0.1c-4.7 5.5-9.2 11.1-13.7 16.8z" fill="#02D6A0" p-id="3973"></path><path d="M96 213.2l831 0.1c-4.1-5.7-8.2-11.3-12.6-16.8l-805.9-0.1c-4.1 5.7-8.4 11.3-12.5 16.8z" fill="#02D6A1" p-id="3974"></path><path d="M84.5 230l854.1 0.1c-3.8-5.7-7.7-11.2-11.5-16.8l-831-0.1c-3.9 5.5-7.8 11.1-11.6 16.8z" fill="#02D5A2" p-id="3975"></path><path d="M73.9 246.7l875.3 0.2c-3.4-5.7-7-11.2-10.6-16.8L84.5 230c-3.7 5.5-7.2 11.1-10.6 16.7z" fill="#02D5A3" p-id="3976"></path><path d="M64.2 263.5l894.8 0.2c-3.2-5.6-6.4-11.2-9.7-16.8L74 246.7c-3.4 5.6-6.6 11.1-9.8 16.8z" fill="#02D5A4" p-id="3977"></path><path d="M55.3 280.2l912.6 0.2c-2.9-5.6-5.8-11.2-8.9-16.8l-894.8-0.2c-3.1 5.6-6.1 11.2-8.9 16.8z" fill="#03D4A5" p-id="3978"></path><path d="M47.2 297l928.8 0.2c-2.6-5.6-5.4-11.2-8.1-16.8l-912.6-0.2c-2.8 5.6-5.5 11.2-8.1 16.8z" fill="#03D4A6" p-id="3979"></path><path d="M39.7 313.6l943.6 0.2c-2.4-5.6-4.8-11.2-7.4-16.8l-928.8-0.2c-2.5 5.7-5 11.2-7.4 16.8z" fill="#03D4A7" p-id="3980"></path><path d="M33.1 330.4l957 0.2c-2.2-5.6-4.3-11.2-6.6-16.8l-943.6-0.2c-2.5 5.6-4.7 11.2-6.8 16.8z" fill="#03D4A8" p-id="3981"></path><path d="M27 347.2l969 0.2c-1.9-5.6-3.9-11.2-6.1-16.8l-957-0.2c-2 5.5-3.9 11.1-5.9 16.8z" fill="#03D3A9" p-id="3982"></path><path d="M21.7 363.9l979.7 0.2c-1.7-5.6-3.4-11.2-5.4-16.8l-969-0.2c-1.8 5.6-3.6 11.2-5.3 16.8z" fill="#03D3AA" p-id="3983"></path><path d="M17 380.7l989.1 0.2c-1.5-5.6-3.1-11.2-4.7-16.8l-979.7-0.2c-1.6 5.6-3.2 11.1-4.7 16.8z" fill="#03D3AB" p-id="3984"></path><path d="M12.9 397.4l997.3 0.2c-1.3-5.6-2.6-11.2-4.1-16.8L17 380.6c-1.5 5.6-2.9 11.2-4.1 16.8z" fill="#04D2AC" p-id="3985"></path><path d="M9.3 414.2l1004.4 0.2c-1.1-5.6-2.3-11.2-3.5-16.8l-997.3-0.2c-1.3 5.6-2.5 11.2-3.6 16.8z" fill="#04D2AD" p-id="3986"></path><path d="M6.4 430.8l1010.3 0.2c-0.9-5.6-1.8-11.2-3-16.8L9.3 414c-1.1 5.6-2 11.2-2.9 16.8z" fill="#04D2AE" p-id="3987"></path><path d="M4 447.6l1015 0.2c-0.7-5.6-1.5-11.2-2.4-16.8L6.3 430.8c-0.8 5.6-1.6 11.2-2.3 16.8z" fill="#04D1AF" p-id="3988"></path><path d="M2.2 464.3l1018.7 0.2c-0.6-5.6-1.1-11.2-1.8-16.8L4 447.5c-0.7 5.6-1.3 11.2-1.8 16.8z" fill="#04D1B0" p-id="3989"></path><path d="M0.9 481.1l1021.2 0.2c-0.3-5.6-0.8-11.2-1.3-16.7L2.2 464.3c-0.5 5.6-1 11.2-1.3 16.8z" fill="#04D1B1" p-id="3990"></path><path d="M0.2 497.8l1022.6 0.2c-0.1-5.6-0.3-11.2-0.7-16.7L0.9 481.1c-0.3 5.6-0.6 11.1-0.7 16.7z" fill="#04D1B2" p-id="3991"></path><path d="M0.2 497.8c-0.1 4.5-0.2 9.2-0.2 13.9v2.9l1022.9 0.2v-3.1c0-4.6-0.1-9.1-0.2-13.7" fill="#05D0B3" p-id="3992"></path><path d="M0.4 531.3l1022.2 0.2c0.2-5.6 0.3-11.2 0.3-16.8L0.1 514.5c0 5.6 0.1 11.2 0.3 16.8z" fill="#05D0B4" p-id="3993"></path><path d="M1.4 548l1020.4 0.2c0.3-5.6 0.7-11.2 0.9-16.8L0.4 531.2c0.2 5.7 0.5 11.2 1 16.8z" fill="#05D0B5" p-id="3994"></path><path d="M2.7 564.8l1017.5 0.2c0.6-5.6 1-11.2 1.5-16.8L1.4 548c0.3 5.6 0.8 11.2 1.3 16.8z" fill="#05CFB6" p-id="3995"></path><path d="M4.8 581.5l1013.5 0.2c0.8-5.6 1.4-11.2 2.1-16.8L2.8 564.7c0.5 5.7 1.2 11.3 2 16.8z" fill="#05CFB7" p-id="3996"></path><path d="M7.3 598.3l1008.4 0.2c0.9-5.6 1.8-11.1 2.6-16.8L4.8 581.5c0.7 5.6 1.6 11.2 2.5 16.8z" fill="#05CFB8" p-id="3997"></path><path d="M10.5 614.9l1002.1 0.2c1.1-5.6 2.2-11.1 3.2-16.8H7.3c1 5.6 2 11.2 3.2 16.6z" fill="#05CEB9" p-id="3998"></path><path d="M14.1 631.7l994.6 0.2c1.4-5.5 2.6-11.1 3.8-16.8l-1002.1-0.2c1.2 5.6 2.5 11.2 3.7 16.8z" fill="#06CEBA" p-id="3999"></path><path d="M18.5 648.4l985.9 0.2c1.5-5.5 3-11.1 4.3-16.8l-994.6-0.2c1.4 5.7 2.9 11.3 4.4 16.8z" fill="#06CEBB" p-id="4000"></path><path d="M23.4 665.2l976.1 0.2c1.7-5.5 3.4-11.1 4.9-16.8l-985.9-0.2c1.6 5.7 3.2 11.2 4.9 16.8z" fill="#06CEBD" p-id="4001"></path><path d="M29 681.9l964.9 0.2c1.9-5.5 3.8-11.1 5.6-16.8l-976.1-0.2c1.8 5.7 3.6 11.3 5.6 16.8z" fill="#06CDBE" p-id="4002"></path><path d="M35.3 698.7l952.4 0.2c2.2-5.5 4.2-11.1 6.3-16.8l-964.9-0.2c1.9 5.7 4 11.3 6.2 16.8z" fill="#06CDBF" p-id="4003"></path><path d="M42.2 715.5l938.6 0.2c2.4-5.5 4.7-11.1 7-16.8l-952.5-0.2c2.1 5.6 4.5 11.2 6.9 16.8z" fill="#06CDC0" p-id="4004"></path><path d="M49.8 732.1l923.3 0.2c2.6-5.5 5.1-11.1 7.7-16.8l-938.7-0.2c2.5 5.7 5.1 11.3 7.7 16.8z" fill="#06CCC1" p-id="4005"></path><path d="M58.2 748.9l906.5 0.2c2.9-5.5 5.7-11.1 8.3-16.8l-923.3-0.2c2.8 5.7 5.7 11.2 8.5 16.8z" fill="#07CCC2" p-id="4006"></path><path d="M67.4 765.6l888.1 0.2c3.2-5.5 6.3-11.1 9.1-16.8l-906.5-0.2c3.1 5.7 6.2 11.3 9.3 16.8z" fill="#07CCC3" p-id="4007"></path><path d="M77.4 782.4l868.1 0.2c3.4-5.5 6.7-11.1 10.1-16.8l-888.1-0.2c3.2 5.7 6.5 11.3 9.9 16.8z" fill="#07CBC4" p-id="4008"></path><path d="M88.4 799.1l846.2 0.2c3.8-5.5 7.4-11.1 11-16.8l-868.2-0.2c3.6 5.7 7.2 11.3 11 16.8z" fill="#07CBC5" p-id="4009"></path><path d="M100.3 815.8l822.5 0.2c4.1-5.5 8-11.1 11.9-16.8L88.5 799c3.7 5.8 7.6 11.4 11.8 16.8z" fill="#07CBC6" p-id="4010"></path><path d="M113.2 832.6l796.5 0.1c4.5-5.5 8.8-11.1 12.9-16.8l-822.5-0.2c4.3 5.9 8.6 11.5 13.1 16.9z" fill="#07CBC7" p-id="4011"></path><path d="M127.2 849.3l768.3 0.1c4.8-5.5 9.5-11.1 14.2-16.8l-796.5-0.1c4.5 5.7 9.2 11.3 14 16.8z" fill="#07CAC8" p-id="4012"></path><path d="M142.6 866.1l737.6 0.1c5.3-5.5 10.4-11.1 15.4-16.8l-768.3-0.1c4.9 5.7 10.1 11.3 15.3 16.8z" fill="#08CAC9" p-id="4013"></path><path d="M159.5 882.8l703.9 0.1c5.7-5.5 11.4-11.1 16.9-16.8H142.6c5.5 5.7 11.1 11.3 16.9 16.7z" fill="#08CACA" p-id="4014"></path><path d="M178 899.6l666.8 0.1c6.3-5.5 12.4-11 18.5-16.8l-703.9-0.1c6.1 5.7 12.4 11.3 18.6 16.8z" fill="#08C9CB" p-id="4015"></path><path d="M198.5 916.2l625.8 0.1c7-5.4 13.8-11 20.6-16.8H178c6.7 5.8 13.5 11.4 20.5 16.7z" fill="#08C9CC" p-id="4016"></path><path d="M210.4 925.1l602.1 0.1c4-2.9 8-5.9 11.9-8.9l-625.8-0.1c3.8 3.1 7.8 6.1 11.8 8.9zM511.5 1023.3c112.5 0 216.6-36.3 301-97.9l-602.1-0.1c84.5 61.5 188.5 98 301.1 98z" fill="#08C9CC" p-id="4017"></path><path d="M694 234.6H298c-18.6 0-33.7 15.1-33.7 33.7v234.8l346.1-0.7c17.4-9.1 37.3-14.3 58.3-14.3 20.8 0 40.4 5.1 57.7 14h1.3v-235c-0.6-18-15.5-32.5-33.7-32.5zM575 461.3V482H322v-41.4H575v20.7z m56.4-98.3v20.7H322v-41.4h309.4V363z" fill="#FFFFFF" p-id="4018"></path><path d="M342.7 440.6H322v20.7c0-11.4 9.3-20.7 20.7-20.7zM554.3 482H575v-20.7c0 11.4-9.3 20.7-20.7 20.7zM322 461.3V482h20.7c-11.4 0-20.7-9.3-20.7-20.7zM575 461.3v-20.7h-20.7c11.4 0 20.7 9.3 20.7 20.7zM631.4 363v-20.7h-20.7c11.4-0.1 20.7 9.2 20.7 20.7zM610.6 383.7h20.7V363c0.1 11.4-9.2 20.7-20.7 20.7zM342.7 342.2H322V363c0-11.5 9.3-20.8 20.7-20.8zM322 363v20.7h20.7c-11.4 0-20.7-9.3-20.7-20.7zM727.7 502.9v-0.7h-1.3c0.4 0.2 0.9 0.5 1.3 0.7zM264.3 514.6l328-0.7c5.7-4.3 11.7-8.1 18-11.5l-346.1 0.7v11.5z" fill="#FFFFFF" p-id="4019"></path><path d="M264.3 526l314.9-0.6c4.1-4.1 8.5-7.9 13.1-11.5l-328 0.7V526z" fill="#FCFFFE" p-id="4020"></path><path d="M264.3 537.4l304.8-0.6c3.1-4 6.5-7.8 10.1-11.5l-314.9 0.7v11.4z" fill="#FAFFFE" p-id="4021"></path><path d="M264.3 548.9l57.7-0.1v-7.5h176.2v7.1l63-0.1c2.4-4 5.1-7.8 8-11.4l-304.8 0.6v11.4z" fill="#F7FEFD" p-id="4022"></path><path d="M493.1 548.4h5.1v-7.1h-20.7c6.2 0 11.8 2.7 15.6 7.1zM342.7 541.3H322v7.5h4.8c3.7-4.6 9.5-7.5 15.9-7.5zM326.8 548.8H322h4.8z" fill="#F7FEFD" p-id="4023"></path><path d="M322 560.2v-11.4l-57.7 0.1v11.4l57.7-0.1zM498.2 548.4v11.4l56.7-0.1c1.9-3.9 4-7.7 6.3-11.4l-63 0.1zM493.1 548.4h5.1-5.1z" fill="#F4FEFD" p-id="4024"></path><path d="M498.1 559.8h0.1v-11.4h-5.1c2.8 3.1 4.6 7.1 5 11.4zM322.1 560.2c0.4-4.3 2.1-8.3 4.7-11.4H322l0.1 11.4zM322.1 560.2h-0.1 0.1zM498.1 559.8h0.1-0.1z" fill="#F4FEFD" p-id="4025"></path><path d="M498.2 562v9.3l51.9-0.1c1.4-3.9 3-7.7 4.8-11.4l-56.7 0.1v2.1zM322 571.6v-11.4l-57.7 0.1v11.4l57.7-0.1zM322 562v9.7h2.4c-1.5-3-2.4-6.2-2.4-9.7zM322 560.2v0zM498.2 571.3V562c0 3.4-0.8 6.5-2.2 9.3h2.2zM498.2 562v-2.1h-0.1c0.1 0.6 0.1 1.4 0.1 2.1zM324.4 571.6H322h2.4z" fill="#F1FEFC" p-id="4026"></path><path d="M498.2 571.3v11.4H322v-11.1l-57.7 0.1v11.4l282.2-0.6c1-3.9 2.2-7.7 3.6-11.4l-51.9 0.2zM496 571.3h2.2-2.2z" fill="#EFFEFC" p-id="4027"></path><path d="M477.5 582.7h20.7v-11.4H496c-3.4 6.7-10.4 11.4-18.5 11.4zM324.4 571.6H322v11.1h20.7c-8 0-14.9-4.5-18.3-11.1z" fill="#EFFEFC" p-id="4028"></path><path d="M264.3 594.6l279.8-0.6c0.6-3.9 1.4-7.7 2.4-11.4l-282.2 0.6v11.4z" fill="#ECFEFB" p-id="4029"></path><path d="M264.3 606l278.5-0.6c0.3-3.9 0.7-7.7 1.3-11.4l-279.8 0.6V606z" fill="#E9FEFB" p-id="4030"></path><path d="M264.3 617.5l278.2-0.6v-2.6c0-3 0.1-5.9 0.3-8.9l-278.5 0.6v11.5z" fill="#E7FEFA" p-id="4031"></path><path d="M264.3 628.9l278.9-0.6c-0.4-3.8-0.7-7.6-0.7-11.4l-278.2 0.6v11.4z" fill="#E4FDFA" p-id="4032"></path><path d="M264.3 640.3l280.7-0.6c-0.8-3.8-1.4-7.6-1.8-11.4l-278.9 0.6v11.4z" fill="#E1FDF9" p-id="4033"></path><path d="M264.3 651.8l283.7-0.6c-1.1-3.7-2.1-7.5-2.9-11.4l-280.7 0.6v11.4z" fill="#DFFDF9" p-id="4034"></path><path d="M264.3 663.2l287.8-0.6c-1.5-3.7-2.9-7.5-4.1-11.4l-283.7 0.6v11.4z" fill="#DCFDF8" p-id="4035"></path><path d="M264.3 674.6l293.2-0.6c-2-3.7-3.8-7.5-5.4-11.4l-287.8 0.6v11.4z" fill="#D9FDF8" p-id="4036"></path><path d="M264.3 686.1l300.2-0.6c-2.5-3.7-4.8-7.5-7-11.4l-293.2 0.6v11.4z" fill="#D7FDF7" p-id="4037"></path><path d="M264.3 697.5l309-0.6c-3.1-3.6-6.1-7.4-8.8-11.4l-300.2 0.6v11.4z" fill="#D4FCF7" p-id="4038"></path><path d="M264.3 708.9l320.2-0.6c-4-3.6-7.7-7.4-11.2-11.4l-309 0.6v11.4z" fill="#D1FCF6" p-id="4039"></path><path d="M264.3 720.3l334.9-0.7c-5.2-3.4-10.1-7.3-14.8-11.4l-320.2 0.6v11.5z" fill="#CFFCF6" p-id="4040"></path><path d="M264.3 731.8l356.4-0.7c-7.6-3.1-14.7-6.9-21.5-11.4l-334.9 0.7v11.4z" fill="#CCFCF5" p-id="4041"></path><path d="M264.3 743.2l444.9-0.9-6.5-6.5c-11.1 3.2-22.5 4.7-34.1 4.7-16.9 0-33.1-3.4-47.9-9.4l-356.4 0.7v11.4z" fill="#C9FCF5" p-id="4042"></path><path d="M264.3 750.4c0 1.4 0.1 2.8 0.3 4.2l456.1-0.9-11.4-11.4-444.9 0.9v7.2z" fill="#C7FCF4" p-id="4043"></path><path d="M268.2 766.1l459.5-0.9v-4.4l-7-7-456.1 0.9c0.5 4 1.7 7.9 3.6 11.4z" fill="#C4FBF4" p-id="4044"></path><path d="M278 777.5l449.7-0.9v-11.4l-459.5 0.9c2.4 4.5 5.7 8.4 9.8 11.4z" fill="#C1FBF3" p-id="4045"></path><path d="M298 784.1h429.7v-7.5l-449.7 0.9c5.6 4.1 12.5 6.6 20 6.6z" fill="#BFFBF3" p-id="4046"></path><path d="M812.9 750.3l-71.6-71.6c14.9-17.3 24-39.7 24-64.3 0-54.3-44.2-98.6-98.6-98.6-54.4 0-98.6 44.2-98.6 98.6 0 54.4 44.2 98.6 98.6 98.6 14.7 0 28.6-3.3 41.1-9.1l75.7 75.7c4 4 9.3 6.1 14.7 6.1 5.3 0 10.6-2 14.6-6.1 8.2-8.1 8.2-21.2 0.1-29.3M609.6 614.4c0-31.5 25.6-57.2 57.1-57.2s57.2 25.7 57.2 57.2c0 31.5-25.6 57.2-57.2 57.2-31.5-0.1-57.1-25.7-57.1-57.2" fill="#FFFFFF" p-id="4047"></path><path d="M609.6 614.3v-57.1h104.5l2.4 3.1 20-15.6c-17.9-17.9-42.5-29-69.7-29-54.4 0-98.6 44.3-98.6 98.6 0 18.4 5.1 35.7 13.9 50.4l27.5-21.4v-29z" fill="#FFFFFF" p-id="4048"></path><path d="M609.6 614.3v29l5.6-4.4c-3.6-7.4-5.6-15.7-5.6-24.6z" fill="#FFFFFF" p-id="4049"></path><path d="M666.7 557.2h-57.1v57.1c0-31.5 25.6-57.1 57.1-57.1z" fill="#FFFFFF" p-id="4050"></path><path d="M716.4 560.3l-2.4-3.1h-47.4c13.9 0 26.7 5 36.6 13.3l13.2-10.2zM716.4 560.3l2.7 3.5 20.4-15.8c-1-1.1-2-2.2-3.1-3.2l-20 15.5zM609.6 648.9v-5.6l-27.5 21.4c0.8 1.3 1.5 2.5 2.4 3.8l25.1-19.6zM703.3 570.5l13.1-10.2-13.1 10.2zM615.2 639l-5.6 4.3 5.6-4.3z" fill="#FFFFFF" p-id="4051"></path><path d="M615.2 639l-5.6 4.4v5.6l7.7-6c-0.8-1.3-1.5-2.7-2.1-4zM706.6 573.5l12.5-9.7-2.7-3.5-13.1 10.2c1.2 0.9 2.3 1.9 3.3 3zM617.3 643l-7.7 5.9 7.7-5.9z" fill="#FFFFFF" p-id="4052"></path><path d="M609.6 654.6V649l-25.2 19.6c0.8 1.2 1.7 2.4 2.5 3.6l22.7-17.6zM719.1 563.8l2.7 3.5 20.6-16c-0.9-1.1-1.9-2.2-2.9-3.3l-20.4 15.8zM706.6 573.5l12.5-9.7-12.5 9.7z" fill="#FCFFFE" p-id="4053"></path><path d="M617.3 643l-7.7 6v5.6l10.1-7.8c-0.9-1.3-1.7-2.6-2.4-3.8zM709.7 576.7l12.1-9.4-2.7-3.5-12.5 9.7c1.1 1 2.1 2.1 3.1 3.2zM619.7 646.7l-10.1 7.9 10.1-7.9z" fill="#FCFFFE" p-id="4054"></path><path d="M610.3 659.6l-0.7-0.9v-4.2L587 672.2c0.9 1.2 1.8 2.4 2.7 3.5l20.6-16.1zM721.8 567.3l2.1 2.7v1.3l21.3-16.5c-0.9-1.2-1.8-2.3-2.8-3.5l-20.6 16zM709.7 576.7l12.1-9.4-12.1 9.4z" fill="#FAFFFE" p-id="4055"></path><path d="M712.5 580.1l11.4-8.9V570l-2.1-2.7-12.1 9.4c1 1.1 1.9 2.3 2.8 3.4zM619.7 646.7l-10.1 7.8v4.2l0.7 0.9 12.1-9.4c-1-1.1-1.9-2.3-2.7-3.5zM622.3 650.3l-12 9.3 12-9.3z" fill="#FAFFFE" p-id="4056"></path><path d="M723.9 571.3v5.6l23.9-18.6c-0.8-1.2-1.7-2.4-2.6-3.6l-21.3 16.6zM610.3 659.6l-20.6 16c0.9 1.2 1.9 2.3 2.8 3.4l20.5-15.9-2.7-3.5zM712.5 580.1l11.4-8.8-11.4 8.8z" fill="#F7FEFD" p-id="4057"></path><path d="M622.3 650.3l-12.1 9.4 2.7 3.5 12.3-9.5c-1-1.2-2-2.3-2.9-3.4zM715 583.8l8.9-6.9v-5.6l-11.4 8.9c0.9 1.1 1.7 2.3 2.5 3.6z" fill="#F7FEFD" p-id="4058"></path><path d="M723.9 576.9v5.6l26.3-20.5c-0.8-1.3-1.6-2.5-2.4-3.7l-23.9 18.6zM613 663.1L592.5 679l3 3.3 20.2-15.7-2.7-3.5zM715 583.8l8.9-6.9-8.9 6.9zM625.2 653.6l-12.2 9.5 12.2-9.5z" fill="#F4FEFD" p-id="4059"></path><path d="M625.2 653.6l-12.3 9.5 2.7 3.5 12.8-9.9c-1.1-1-2.1-2-3.2-3.1zM717.2 587.6l6.6-5.2v-5.6l-8.9 6.9c0.9 1.3 1.6 2.6 2.3 3.9z" fill="#F4FEFD" p-id="4060"></path><path d="M723.9 582.5v5.6l28.6-22.3c-0.7-1.3-1.5-2.6-2.3-3.8l-26.3 20.5zM615.7 666.6l-20.2 15.7c1 1.1 2.1 2.1 3.1 3.2l19.8-15.4-2.7-3.5zM628.4 656.7l-12.7 9.9 12.7-9.9zM717.2 587.6l6.7-5.1-6.7 5.1z" fill="#F1FEFC" p-id="4061"></path><path d="M719.2 591.7l4.7-3.6v-5.6l-6.6 5.2c0.6 1.3 1.3 2.6 1.9 4zM628.4 656.7l-12.8 9.9 2.7 3.5 13.5-10.5c-1.1-0.9-2.3-1.9-3.4-2.9zM719.2 591.7l4.7-3.6-4.7 3.6z" fill="#F1FEFC" p-id="4062"></path><path d="M619.4 671.5l-1-1.4-19.8 15.4 3.3 3 21.9-17h-4.4zM723.9 593.7l30.7-23.9-2.1-3.9-28.6 22.3v5.5zM631.9 659.6l-13.6 10.5 13.6-10.5z" fill="#EFFEFC" p-id="4063"></path><path d="M631.9 659.6l-13.5 10.5 1 1.4h4.4l11.9-9.2c-1.3-0.9-2.6-1.8-3.8-2.7zM720.9 596l3-2.4V588l-4.7 3.6c0.6 1.5 1.2 3 1.7 4.4z" fill="#EFFEFC" p-id="4064"></path><path d="M723.9 593.7v5.6l32.7-25.4c-0.6-1.4-1.3-2.7-2-4.1l-30.7 23.9zM623.8 671.5l-21.9 17c1.1 1 2.3 2 3.5 2.9l25.6-19.9h-7.2zM635.7 662.3l-11.9 9.2 11.9-9.2zM720.9 596l3-2.3-3 2.3z" fill="#ECFEFB" p-id="4065"></path><path d="M635.7 662.3l-11.9 9.2h7.2l8.7-6.8c-1.4-0.7-2.7-1.6-4-2.4zM722.2 600.6l1.7-1.3v-5.6l-3 2.4c0.5 1.4 0.9 2.9 1.3 4.5zM722.2 600.6l1.7-1.3-1.7 1.3z" fill="#ECFEFB" p-id="4066"></path><path d="M631 671.5l-25.6 19.9c1.2 1 2.4 1.9 3.6 2.8l29.2-22.7H631zM723.9 604.9l34.5-26.8-1.8-4.2-32.7 25.4v5.6zM639.7 664.7l-8.7 6.8 8.7-6.8z" fill="#E9FEFB" p-id="4067"></path><path d="M723.2 605.4l0.7-0.5v-5.6l-1.7 1.3c0.4 1.6 0.7 3.2 1 4.8zM639.7 664.7l-8.7 6.8h7.2l6-4.6c-1.5-0.7-3-1.4-4.5-2.2z" fill="#E9FEFB" p-id="4068"></path><path d="M723.9 604.9v5.6l36.1-28.1c-0.5-1.5-1-2.9-1.6-4.4l-34.5 26.9zM638.2 671.5L609 694.2c1.3 0.9 2.5 1.8 3.8 2.6l32.6-25.3h-7.2zM723.2 605.4l0.7-0.5-0.7 0.5zM644.2 666.9l-6 4.6 6-4.6z" fill="#E7FEFA" p-id="4069"></path><path d="M723.8 610.6l0.1-0.1v-5.6l-0.7 0.5c0.3 1.7 0.4 3.4 0.6 5.2zM644.2 666.9l-6 4.6h7.2l3.6-2.8-4.8-1.8zM723.8 610.6l0.1-0.1-0.1 0.1z" fill="#E7FEFA" p-id="4070"></path><path d="M645.4 671.5l-32.6 25.3c1.3 0.9 2.6 1.7 4 2.5l35.8-27.8h-7.2zM723.9 614.3v1.8l37.5-29.2c-0.4-1.5-0.9-3-1.4-4.5l-36.1 28.1v3.8zM649 668.7l-3.6 2.8 3.6-2.8z" fill="#E4FDFA" p-id="4071"></path><path d="M649 668.7l-3.6 2.8h7.2l1.7-1.4c-1.7-0.4-3.5-0.9-5.3-1.4zM723.9 616.1v-1.8 1.8zM723.9 614.3v-3.8l-0.1 0.1c0 1.2 0.1 2.5 0.1 3.7zM723.8 616.1h0.1-0.1z" fill="#E4FDFA" p-id="4072"></path><path d="M723.9 621.7l38.7-30.1c-0.4-1.6-0.8-3.1-1.2-4.6l-37.5 29.2v5.5zM652.6 671.5l-35.8 27.8c1.4 0.8 2.8 1.6 4.2 2.3l38.8-30.2h-7.2zM654.4 670.1l-1.8 1.4 1.8-1.4zM723.3 622.1l0.5-0.4v-5.6c0 2-0.2 4-0.5 6z" fill="#E1FDF9" p-id="4073"></path><path d="M654.4 670.1l-1.7 1.4h7.2l0.5-0.4c-2.1-0.2-4.1-0.5-6-1z" fill="#E1FDF9" p-id="4074"></path><path d="M666.7 671.5h-6.9L621 701.7c1.4 0.8 2.9 1.5 4.4 2.2l41.6-32.3h-0.3zM723.9 621.7v5.6l39.8-30.9c-0.3-1.6-0.6-3.2-1-4.8l-38.8 30.1zM660.3 671.1l-0.5 0.4 0.5-0.4zM723.3 622.1l0.6-0.4-0.6 0.4zM666.7 671.5h0.3-0.3z" fill="#DFFDF9" p-id="4075"></path><path d="M659.8 671.5h6.9c-2.2 0-4.3-0.1-6.4-0.4l-0.5 0.4zM722.1 628.7l1.8-1.4v-5.6l-0.5 0.4c-0.4 2.3-0.8 4.5-1.3 6.6z" fill="#DFFDF9" p-id="4076"></path><path d="M723.9 627.3v5.6l40.6-31.5c-0.2-1.7-0.5-3.3-0.8-5l-39.8 30.9zM674.2 671.5H667l-41.6 32.3c1.5 0.7 3.1 1.4 4.6 2l44.2-34.3zM722.1 628.7l1.8-1.4-1.8 1.4zM667 671.5zM667 671.5h7.2l0.8-0.6c-2.6 0.4-5.2 0.6-8 0.6z" fill="#DCFDF8" p-id="4077"></path><path d="M719.5 636.3l4.4-3.4v-5.6l-1.8 1.4c-0.7 2.6-1.6 5.2-2.6 7.6zM719.5 636.3l4.4-3.4-4.4 3.4zM675 670.9l-0.8 0.6 0.8-0.6z" fill="#DCFDF8" p-id="4078"></path><path d="M681.4 671.5h-7.2L630 705.8c1.6 0.6 3.2 1.3 4.9 1.8l46.5-36.1zM723.9 638.5l41.1-32c-0.1-1.7-0.3-3.5-0.5-5.2l-40.6 31.5v5.7zM714.3 645.9l9.5-7.4v-5.6l-4.4 3.4c-1.3 3.4-3.1 6.6-5.1 9.6z" fill="#D9FDF8" p-id="4079"></path><path d="M675 670.9l-0.8 0.6h7.2l4.1-3.2c-3.3 1.2-6.8 2.1-10.5 2.6zM714.3 645.9l9.6-7.4-9.6 7.4zM685.6 668.3l-4.2 3.2 4.2-3.2z" fill="#D9FDF8" p-id="4080"></path><path d="M723.9 644.1l41.4-32.2c0-1.8-0.1-3.6-0.3-5.4l-41.1 32v5.6zM688.6 671.5h-7.2l-46.5 36.2c1.7 0.6 3.4 1.1 5.1 1.6l48.6-37.8z" fill="#D7FDF7" p-id="4081"></path><path d="M723.9 638.5l-9.5 7.4c-6.8 10.3-16.9 18.2-28.8 22.4l-4.1 3.2h7.2l35.2-27.4v-5.6zM688.6 671.5l35.3-27.4z" fill="#D7FDF7" p-id="4082"></path><path d="M695.8 671.5h-7.2L640 709.3c1.8 0.5 3.6 1 5.5 1.4l50.3-39.2zM723.9 644.1v5.6l41.3-32.1c0-1.1 0.1-2.1 0.1-3.2V612l-41.4 32.1z" fill="#D4FCF7" p-id="4083"></path><path d="M695.8 671.5l28.1-21.8v-5.6l-35.3 27.4zM695.8 671.5l28.1-21.8-28.1 21.8z" fill="#D4FCF7" p-id="4084"></path><path d="M703.1 671.5h-7.2l-50.3 39.1c1.9 0.4 3.8 0.8 5.8 1.1l51.7-40.2zM723.9 655.3l41-31.9c0.2-1.9 0.3-3.9 0.3-5.9l-41.3 32.1v5.7zM703.1 671.5l20.8-16.2v-5.6l-28.1 21.8zM703.1 671.5l20.8-16.2-20.8 16.2z" fill="#D1FCF6" p-id="4085"></path><path d="M723.9 660.9l40.2-31.3c0.3-2.1 0.6-4.1 0.8-6.2l-41 31.9v5.6zM710.3 671.5h-7.2l-51.7 40.2c2 0.3 4.1 0.6 6.2 0.8l52.7-41zM710.3 671.5l13.6-10.6v-5.6l-20.8 16.2zM710.3 671.5l13.6-10.6-13.6 10.6z" fill="#CFFCF6" p-id="4086"></path><path d="M723.9 666.5l38.9-30.3c0.5-2.2 0.9-4.4 1.2-6.6l-40.2 31.3v5.6zM710.3 671.5l-52.7 41c2.2 0.2 4.4 0.3 6.7 0.4l53.2-41.4h-7.2z" fill="#CCFCF5" p-id="4087"></path><path d="M717.5 671.5l4.7-3.7 1.7-1.3v-5.6l-13.6 10.6zM723.9 666.5l-1.7 1.3z" fill="#CCFCF5" p-id="4088"></path><path d="M723.9 671.5h-6.4l-53.2 41.4h2.5c1.6 0 3.2 0 4.8-0.1l89.3-69.5c0.7-2.3 1.4-4.7 1.9-7.1l-38.9 30.3v5zM717.5 671.5l4.7-3.7z" fill="#C9FCF5" p-id="4089"></path><path d="M717.5 671.5h6.4v-5l-1.7 1.3z" fill="#C9FCF5" p-id="4090"></path><path d="M679.7 712l78.4-61c1-2.5 2-5.1 2.8-7.8l-89.3 69.5c2.7-0.1 5.4-0.3 8.1-0.7z" fill="#C7FCF4" p-id="4091"></path><path d="M689.2 710.3l64.9-50.5c1.5-2.8 2.8-5.8 4-8.7l-78.4 61c3.2-0.5 6.4-1.1 9.5-1.8z" fill="#C4FBF4" p-id="4092"></path><path d="M701 706.7l46.6-36.2c2.4-3.4 4.5-6.9 6.5-10.6l-64.9 50.5c4-1.1 8-2.3 11.8-3.7z" fill="#C1FBF3" p-id="4093"></path><path d="M707.9 703.8l0.2 0.2 33.6-25.8c2.1-2.5 4.1-5.1 6-7.8L701 706.7c2.4-0.9 4.6-1.9 6.9-2.9z" fill="#BFFBF3" p-id="4094"></path></svg>