<svg class="icon" style="width: auto;height: auto;vertical-align: middle;fill: currentColor;overflow: hidden;" viewBox="0 0 1024 1024" version="1.1" xmlns="http://www.w3.org/2000/svg" p-id="5104"><path d="M413.25 74.12l196.13 0.04c-31.59-7.06-64.43-10.8-98.14-10.8-33.66 0-66.45 3.72-97.99 10.76z" fill="#00D995" p-id="5105"></path><path d="M362.17 88.77l298.26 0.06a445.045 445.045 0 0 0-51.06-14.67l-196.13-0.04a444.28 444.28 0 0 0-51.07 14.65z" fill="#01D996" p-id="5106"></path><path d="M325.85 103.41l370.89 0.08a444.746 444.746 0 0 0-36.31-14.66l-298.26-0.06a444.808 444.808 0 0 0-36.32 14.64z" fill="#01D997" p-id="5107"></path><path d="M296.58 118.06l429.43 0.09a446.362 446.362 0 0 0-29.27-14.66l-370.89-0.08c-9.96 4.54-19.72 9.43-29.27 14.65z" fill="#01D898" p-id="5108"></path><path d="M271.74 132.71l479.1 0.1a449.22 449.22 0 0 0-24.83-14.66l-429.43-0.09c-8.45 4.62-16.73 9.51-24.84 14.65z" fill="#01D899" p-id="5109"></path><path d="M250.06 147.36l522.45 0.11a449.52 449.52 0 0 0-21.67-14.66l-479.1-0.1c-7.37 4.68-14.6 9.56-21.68 14.65z" fill="#01D89A" p-id="5110"></path><path d="M230.79 162.01l560.99 0.12c-6.28-5.06-12.71-9.94-19.26-14.66l-522.45-0.11c-6.56 4.72-12.99 9.6-19.28 14.65z" fill="#01D79B" p-id="5111"></path><path d="M213.49 176.66l595.59 0.12c-5.64-5.03-11.41-9.92-17.3-14.66L230.79 162c-5.89 4.75-11.66 9.64-17.3 14.66z" fill="#01D79C" p-id="5112"></path><path d="M197.81 191.32l626.95 0.13c-5.11-5.01-10.33-9.9-15.68-14.66l-595.59-0.12c-5.35 4.75-10.57 9.64-15.68 14.65z" fill="#02D79D" p-id="5113"></path><path d="M183.51 205.97l655.53 0.14c-4.65-4.99-9.42-9.88-14.29-14.66l-626.95-0.13c-4.87 4.77-9.63 9.65-14.29 14.65z" fill="#02D79E" p-id="5114"></path><path d="M170.45 220.62l681.64 0.14c-4.25-4.98-8.6-9.87-13.05-14.66l-655.53-0.14c-4.46 4.79-8.81 9.68-13.06 14.66z" fill="#02D69F" p-id="5115"></path><path d="M158.47 235.27l705.61 0.15c-3.89-4.97-7.89-9.86-11.98-14.66l-681.64-0.14c-4.1 4.8-8.1 9.68-11.99 14.65z" fill="#02D6A0" p-id="5116"></path><path d="M147.47 249.92l727.6 0.15c-3.57-4.96-7.23-9.85-10.99-14.66l-705.61-0.15c-3.77 4.82-7.43 9.7-11 14.66z" fill="#02D6A1" p-id="5117"></path><path d="M137.36 264.58l747.82 0.15c-3.27-4.96-6.65-9.84-10.11-14.66l-727.6-0.15c-3.47 4.82-6.84 9.7-10.11 14.66z" fill="#02D5A2" p-id="5118"></path><path d="M128.07 279.23l766.39 0.16c-3-4.95-6.09-9.84-9.28-14.66l-747.82-0.15c-3.19 4.82-6.29 9.7-9.29 14.65z" fill="#02D5A3" p-id="5119"></path><path d="M119.56 293.88l783.4 0.16a454.19 454.19 0 0 0-8.51-14.66l-766.39-0.16a473.34 473.34 0 0 0-8.5 14.66z" fill="#02D5A4" p-id="5120"></path><path d="M111.76 308.54l798.98 0.17c-2.51-4.94-5.1-9.83-7.79-14.66l-783.4-0.16c-2.68 4.82-5.28 9.71-7.79 14.65z" fill="#03D4A5" p-id="5121"></path><path d="M104.65 323.19l813.21 0.17c-2.28-4.93-4.65-9.82-7.11-14.66l-798.98-0.17c-2.46 4.84-4.84 9.72-7.12 14.66z" fill="#03D4A6" p-id="5122"></path><path d="M98.18 337.84l826.15 0.17a446.14 446.14 0 0 0-6.47-14.66l-813.21-0.17c-2.24 4.85-4.4 9.73-6.47 14.66z" fill="#03D4A7" p-id="5123"></path><path d="M92.32 352.5l837.86 0.17c-1.87-4.93-3.82-9.81-5.85-14.66l-826.15-0.17c-2.04 4.84-3.99 9.73-5.86 14.66z" fill="#03D4A8" p-id="5124"></path><path d="M87.06 367.15l848.38 0.18c-1.67-4.92-3.42-9.81-5.26-14.66l-837.86-0.17c-1.84 4.84-3.59 9.73-5.26 14.65z" fill="#03D3A9" p-id="5125"></path><path d="M82.37 381.8l857.75 0.18c-1.48-4.92-3.04-9.81-4.68-14.66l-848.38-0.18c-1.65 4.86-3.21 9.74-4.69 14.66z" fill="#03D3AA" p-id="5126"></path><path d="M78.23 396.46l866.03 0.18c-1.3-4.92-2.68-9.8-4.14-14.66l-857.75-0.18c-1.46 4.85-2.84 9.74-4.14 14.66z" fill="#03D3AB" p-id="5127"></path><path d="M74.62 411.11l873.24 0.18c-1.12-4.92-2.32-9.8-3.61-14.66l-866.03-0.18c-1.27 4.86-2.48 9.74-3.6 14.66z" fill="#04D2AC" p-id="5128"></path><path d="M71.53 425.76l879.42 0.18c-0.95-4.91-1.98-9.8-3.08-14.66l-873.25-0.17c-1.11 4.86-2.14 9.74-3.09 14.65z" fill="#04D2AD" p-id="5129"></path><path d="M68.95 440.42l884.56 0.18c-0.78-4.91-1.63-9.8-2.57-14.66l-879.42-0.18c-0.93 4.86-1.79 9.75-2.57 14.66z" fill="#04D2AE" p-id="5130"></path><path d="M66.87 455.07l888.72 0.18c-0.61-4.91-1.31-9.8-2.08-14.66l-884.56-0.18c-0.77 4.87-1.47 9.75-2.08 14.66z" fill="#04D1AF" p-id="5131"></path><path d="M65.28 469.73l891.89 0.18c-0.45-4.91-0.98-9.79-1.58-14.66l-888.72-0.18c-0.61 4.86-1.14 9.75-1.59 14.66z" fill="#04D1B0" p-id="5132"></path><path d="M64.18 484.38l894.09 0.18c-0.29-4.91-0.65-9.79-1.1-14.65l-891.89-0.18c-0.44 4.86-0.81 9.75-1.1 14.65z" fill="#04D1B1" p-id="5133"></path><path d="M63.55 499.04l895.35 0.19c-0.13-4.91-0.34-9.79-0.63-14.65l-894.09-0.18c-0.29 4.85-0.5 9.73-0.63 14.64z" fill="#04D1B2" p-id="5134"></path><path d="M63.55 499.04c-0.11 4.05-0.17 8.11-0.17 12.18 0 0.83 0.01 1.65 0.02 2.47l895.64 0.19c0.01-0.89 0.02-1.77 0.02-2.66 0-4.01-0.06-8.01-0.16-12" fill="#05D0B3" p-id="5135"></path><path d="M63.7 528.35l895.03 0.18c0.18-4.86 0.28-9.75 0.31-14.65l-895.64-0.19c0.02 4.9 0.12 9.79 0.3 14.66z" fill="#05D0B4" p-id="5136"></path><path d="M64.5 543l893.42 0.18c0.34-4.86 0.62-9.75 0.8-14.65l-895.03-0.18c0.2 4.9 0.47 9.79 0.81 14.65z" fill="#05D0B5" p-id="5137"></path><path d="M65.76 557.66l890.89 0.18c0.5-4.86 0.92-9.75 1.27-14.65l-893.42-0.18c0.34 4.9 0.76 9.78 1.26 14.65z" fill="#05CFB6" p-id="5138"></path><path d="M67.52 572.31l887.37 0.18c0.67-4.86 1.25-9.75 1.76-14.65l-890.89-0.18c0.51 4.91 1.1 9.79 1.76 14.65z" fill="#05CFB7" p-id="5139"></path><path d="M69.77 586.97l882.87 0.18c0.83-4.86 1.58-9.74 2.26-14.65l-887.38-0.19c0.67 4.91 1.42 9.8 2.25 14.66z" fill="#05CFB8" p-id="5140"></path><path d="M72.51 601.62l877.38 0.18c1-4.86 1.91-9.74 2.75-14.65l-882.87-0.18c0.83 4.91 1.74 9.8 2.74 14.65z" fill="#05CEB9" p-id="5141"></path><path d="M75.78 616.28l870.84 0.18c1.17-4.85 2.26-9.74 3.27-14.65l-877.38-0.18c1.01 4.91 2.1 9.79 3.27 14.65z" fill="#06CEBA" p-id="5142"></path><path d="M79.57 630.93l863.25 0.18c1.35-4.85 2.61-9.74 3.8-14.65l-870.84-0.18c1.18 4.91 2.44 9.8 3.79 14.65z" fill="#06CEBB" p-id="5143"></path><path d="M83.89 645.59l854.59 0.18c1.53-4.85 2.97-9.73 4.33-14.65l-863.25-0.18c1.37 4.91 2.81 9.8 4.33 14.65z" fill="#06CEBD" p-id="5144"></path><path d="M88.77 660.24l844.83 0.17c1.71-4.85 3.34-9.73 4.89-14.65l-854.59-0.18c1.54 4.93 3.16 9.82 4.87 14.66z" fill="#06CDBE" p-id="5145"></path><path d="M94.24 674.9l833.89 0.17c1.91-4.84 3.73-9.73 5.47-14.65l-844.83-0.17c1.74 4.92 3.56 9.8 5.47 14.65z" fill="#06CDBF" p-id="5146"></path><path d="M100.3 689.56l821.76 0.17c2.11-4.84 4.13-9.73 6.07-14.65l-833.89-0.17c1.93 4.92 3.96 9.8 6.06 14.65z" fill="#06CDC0" p-id="5147"></path><path d="M106.99 704.21l808.38 0.17c2.32-4.84 4.55-9.72 6.69-14.65l-821.76-0.17c2.14 4.93 4.37 9.81 6.69 14.65z" fill="#06CCC1" p-id="5148"></path><path d="M114.33 718.87l793.69 0.16c2.54-4.83 4.99-9.72 7.35-14.65l-808.38-0.17c2.36 4.94 4.81 9.82 7.34 14.66z" fill="#07CCC2" p-id="5149"></path><path d="M122.36 733.52l777.61 0.16a441.8 441.8 0 0 0 8.04-14.65l-793.69-0.16c2.6 4.94 5.28 9.82 8.04 14.65z" fill="#07CCC3" p-id="5150"></path><path d="M131.13 748.18l760.06 0.16c3.02-4.82 5.94-9.71 8.78-14.65l-777.61-0.16c2.84 4.94 5.76 9.83 8.77 14.65z" fill="#07CBC4" p-id="5151"></path><path d="M140.7 762.84l740.92 0.15c3.28-4.82 6.48-9.7 9.57-14.65l-760.06-0.16c3.1 4.95 6.29 9.84 9.57 14.66z" fill="#07CBC5" p-id="5152"></path><path d="M151.11 777.49l720.1 0.15c3.57-4.81 7.04-9.7 10.42-14.65l-740.92-0.15c3.36 4.96 6.84 9.84 10.4 14.65z" fill="#07CBC6" p-id="5153"></path><path d="M162.43 792.15l697.44 0.14c3.88-4.8 7.65-9.69 11.33-14.65l-720.1-0.15c3.69 4.97 7.46 9.86 11.33 14.66z" fill="#07CBC7" p-id="5154"></path><path d="M174.79 806.81l672.73 0.14c4.22-4.8 8.34-9.68 12.36-14.65l-697.44-0.14c4.01 4.97 8.13 9.85 12.35 14.65z" fill="#07CAC8" p-id="5155"></path><path d="M188.26 821.47l645.78 0.13c4.6-4.78 9.1-9.67 13.48-14.65l-672.73-0.14c4.38 4.98 8.87 9.87 13.47 14.66z" fill="#08CAC9" p-id="5156"></path><path d="M203.01 836.12l616.28 0.13c5.03-4.77 9.95-9.66 14.75-14.65l-645.78-0.13c4.8 4.99 9.72 9.88 14.75 14.65z" fill="#08CACA" p-id="5157"></path><path d="M219.23 850.78l583.83 0.12a450.43 450.43 0 0 0 16.23-14.65l-616.28-0.13c5.28 5.02 10.69 9.91 16.22 14.66z" fill="#08C9CB" p-id="5158"></path><path d="M237.18 865.44l547.93 0.11c6.11-4.73 12.1-9.62 17.95-14.65l-583.83-0.12c5.85 5.04 11.84 9.93 17.95 14.66z" fill="#08C9CC" p-id="5159"></path><path d="M247.54 873.24l527.2 0.11c3.5-2.55 6.95-5.15 10.37-7.8l-547.93-0.11c3.41 2.65 6.86 5.25 10.36 7.8z" fill="#08C9CC" p-id="5160"></path><path d="M511.24 959.05c98.49 0 189.56-31.8 263.5-85.7l-527.2-0.11c73.97 53.96 165.11 85.81 263.7 85.81z" fill="#08C9CC" p-id="5161"></path><path d="M539.96 748.14v-35.02c0-29.2 23.76-52.96 52.96-52.96h18.28c-14.3-14.51-22.81-34.27-22.81-55.49 0-43.88 35.69-79.56 79.56-79.56 14.85 0 28.68 4.15 40.59 11.26V273.81c0-16.22-13.2-29.42-29.44-29.42H292.19c-16.2 0-29.42 13.2-29.42 29.42v474.34c0 16.24 13.22 29.42 29.42 29.42H548.9a52.755 52.755 0 0 1-8.94-29.43M358.71 385.62h253.63c9.75 0 17.67 7.9 17.67 17.66 0 9.75-7.92 17.65-17.67 17.65H358.71c-9.77 0-17.67-7.9-17.67-17.65 0-9.75 7.9-17.66 17.67-17.66m0 103.38h253.63c9.75 0 17.67 7.9 17.67 17.66 0 9.74-7.92 17.65-17.67 17.65H358.71c-9.77 0-17.67-7.91-17.67-17.65 0-9.76 7.9-17.66 17.67-17.66m157.18 132.61H358.71c-9.77 0-17.67-7.92-17.67-17.65 0-9.75 7.9-17.66 17.67-17.66h157.18c9.73 0 17.64 7.9 17.64 17.66 0 9.74-7.9 17.65-17.64 17.65" fill="#FFFFFF" p-id="5162"></path><path d="M742.98 683.7h-49.32l-119.15 87.38c5.05 4.06 11.45 6.5 18.42 6.5h150.05c16.24 0 29.42-13.2 29.42-29.44v-35.02c-0.01-16.24-13.19-29.42-29.42-29.42z" fill="#FFFFFF" p-id="5163"></path><path d="M687.84 683.7l-115.93 85.02c0.82 0.84 1.69 1.62 2.6 2.36l119.15-87.38h-5.82z" fill="#FFFFFF" p-id="5164"></path><path d="M685.61 683.7v-2.63l-115.97 85.05c0.71 0.91 1.46 1.78 2.27 2.6l115.93-85.02h-2.23z" fill="#FDFFFF" p-id="5165"></path><path d="M685.61 676.8l-117.92 86.48c0.59 0.99 1.25 1.93 1.95 2.84l115.97-85.05v-4.27z" fill="#FCFFFE" p-id="5166"></path><path d="M685.61 672.54L566.08 760.2c0.48 1.06 1.01 2.09 1.61 3.08l117.92-86.48v-4.26z" fill="#FAFFFE" p-id="5167"></path><path d="M685.61 668.27L564.8 756.86c0.36 1.14 0.79 2.25 1.27 3.33l119.53-87.66v-4.26z" fill="#F8FFFE" p-id="5168"></path><path d="M685.61 664.01l-121.68 89.23c0.22 1.24 0.5 2.45 0.87 3.63l120.81-88.59v-4.27z" fill="#F6FEFD" p-id="5169"></path><path d="M708.7 642.81l-16.23 11.9c6.11-2.98 11.6-7.03 16.23-11.9zM685.61 659.74l-122.1 89.54c0.05 1.34 0.19 2.66 0.42 3.96l121.68-89.23v-4.27z" fill="#F5FEFD" p-id="5170"></path><path d="M685.61 657.53c2.36-0.79 4.64-1.74 6.85-2.82l16.23-11.9c2.79-2.94 5.25-6.17 7.35-9.66l-65.75 48.21v2.33h-3.18l-83.63 61.33v3.11c0 0.38 0.01 0.76 0.03 1.14l122.1-89.54v-2.2z" fill="#F3FEFD" p-id="5171"></path><path d="M641.3 683.7l-77.81 57.07v4.26l83.63-61.33zM719.56 626.32L650.3 677.1v4.27l65.75-48.21c1.32-2.19 2.5-4.47 3.51-6.84z" fill="#F1FEFC" p-id="5172"></path><path d="M635.49 683.7l-72 52.8v4.27l77.81-57.07zM721.64 620.52l-71.34 52.32v4.27l69.25-50.78c0.81-1.89 1.5-3.83 2.09-5.81z" fill="#F0FEFC" p-id="5173"></path><path d="M722.92 615.31l-72.62 53.25v4.27l71.34-52.32c0.51-1.69 0.94-3.43 1.28-5.2zM629.67 683.7l-66.18 48.53v4.27l72-52.8z" fill="#EEFEFC" p-id="5174"></path><path d="M623.85 683.7l-60.36 44.27v4.26l66.18-48.53zM723.64 610.52L650.3 664.3v4.27l72.62-53.25c0.31-1.58 0.55-3.18 0.72-4.8z" fill="#ECFEFB" p-id="5175"></path><path d="M618.03 683.7l-54.54 40v4.27l60.36-44.27zM723.93 606.05l-73.63 53.99v4.27l73.34-53.78c0.15-1.48 0.25-2.98 0.29-4.48z" fill="#EAFEFB" p-id="5176"></path><path d="M723.96 604.66c0-0.96-0.02-1.91-0.07-2.85l-75.2 55.15c0.54 0.2 1.07 0.4 1.62 0.58v2.5l73.63-53.99c0-0.47 0.02-0.93 0.02-1.39zM612.22 683.7l-48.73 35.74v4.26l54.54-40z" fill="#E9FEFB" p-id="5177"></path><path d="M606.4 683.7l-42.91 31.47v4.27l48.73-35.74zM723.52 597.81l-78.56 57.61c1.22 0.55 2.46 1.07 3.73 1.53l75.2-55.15c-0.07-1.34-0.2-2.67-0.37-3.99z" fill="#E7FEFA" p-id="5178"></path><path d="M600.58 683.7l-37 27.13c-0.06 0.76-0.1 1.52-0.1 2.29v2.05l42.91-31.47h-5.81zM722.92 593.98l-81.44 59.72c1.14 0.61 2.29 1.18 3.47 1.72l78.56-57.61c-0.14-1.29-0.34-2.57-0.59-3.83z" fill="#E5FDFA" p-id="5179"></path><path d="M594.76 683.7l-30.4 22.3a29.61 29.61 0 0 0-0.78 4.84l37-27.13h-5.82zM722.09 590.33l-83.86 61.49c1.06 0.66 2.14 1.29 3.25 1.88l81.44-59.72c-0.23-1.23-0.51-2.45-0.83-3.65z" fill="#E4FDFA" p-id="5180"></path><path d="M721.03 586.84l-85.83 62.94c0.99 0.71 2 1.39 3.04 2.04l83.86-61.49c-0.32-1.18-0.68-2.34-1.07-3.49zM592.92 683.7c-1.51 0-2.98 0.11-4.43 0.33l-21.99 16.12c-0.91 1.85-1.63 3.8-2.14 5.84l30.4-22.29h-1.84z" fill="#E2FDF9" p-id="5181"></path><path d="M719.79 583.49l-87.42 64.11c0.92 0.76 1.87 1.49 2.84 2.19l85.83-62.94c-0.39-1.15-0.8-2.26-1.25-3.36zM566.5 700.16l21.99-16.12c-9.66 1.46-17.81 7.64-21.99 16.12z" fill="#E0FDF9" p-id="5182"></path><path d="M718.36 580.27l-88.65 65.01c0.86 0.8 1.75 1.57 2.66 2.32l87.42-64.11c-0.45-1.09-0.92-2.17-1.43-3.22z" fill="#DEFDF9" p-id="5183"></path><path d="M716.73 577.19l-89.5 65.64c0.8 0.84 1.62 1.66 2.48 2.45l88.65-65.01c-0.51-1.05-1.06-2.07-1.63-3.08z" fill="#DDFDF8" p-id="5184"></path><path d="M714.94 574.24l-90.01 66.01c0.74 0.88 1.51 1.74 2.3 2.58l89.5-65.64c-0.56-1-1.16-1.98-1.79-2.95z" fill="#DBFDF8" p-id="5185"></path><path d="M712.99 571.41l-90.2 66.15c0.68 0.92 1.4 1.82 2.14 2.7l90.01-66.01c-0.62-0.97-1.27-1.92-1.95-2.84z" fill="#D9FDF8" p-id="5186"></path><path d="M710.85 568.71l-90.02 66.01c0.63 0.96 1.27 1.91 1.95 2.83l90.2-66.15c-0.68-0.91-1.39-1.81-2.13-2.69z" fill="#D8FDF7" p-id="5187"></path><path d="M708.55 566.13l-89.5 65.64c0.57 1 1.17 1.99 1.79 2.95l90.02-66.01a63.31 63.31 0 0 0-2.31-2.58z" fill="#D6FCF7" p-id="5188"></path><path d="M706.08 563.68l-88.64 65.01c0.51 1.05 1.04 2.07 1.61 3.08l89.5-65.64c-0.8-0.84-1.62-1.66-2.47-2.45z" fill="#D4FCF7" p-id="5189"></path><path d="M703.43 561.35L616 625.47c0.44 1.09 0.92 2.17 1.43 3.22l88.64-65.01c-0.85-0.8-1.73-1.58-2.64-2.33z" fill="#D2FCF6" p-id="5190"></path><path d="M700.58 559.18l-85.82 62.94c0.38 1.14 0.8 2.25 1.25 3.35l87.43-64.11c-0.93-0.76-1.89-1.48-2.86-2.18z" fill="#D1FCF6" p-id="5191"></path><path d="M697.55 557.14l-83.82 61.47c0.31 1.18 0.65 2.36 1.03 3.51l85.82-62.94c-0.99-0.71-2-1.4-3.03-2.04z" fill="#CFFCF6" p-id="5192"></path><path d="M694.3 555.25l-81.39 59.69c0.23 1.24 0.5 2.46 0.82 3.67l83.82-61.47c-1.06-0.67-2.14-1.3-3.25-1.89z" fill="#CDFCF5" p-id="5193"></path><path d="M690.81 553.54l-78.49 57.56c0.15 1.29 0.35 2.57 0.59 3.84l81.39-59.69a62.59 62.59 0 0 0-3.49-1.71z" fill="#CCFCF5" p-id="5194"></path><path d="M687.08 552.01L612 607.08c0.06 1.36 0.17 2.7 0.32 4.03l78.49-57.56c-1.22-0.55-2.46-1.07-3.73-1.54z" fill="#CAFCF5" p-id="5195"></path><path d="M683.02 550.72l-71.03 52.09c-0.02 0.61-0.05 1.23-0.05 1.85 0 0.81 0.02 1.61 0.05 2.41l75.08-55.06c-1.32-0.48-2.68-0.9-4.05-1.29z" fill="#C8FCF4" p-id="5196"></path><path d="M678.63 549.68l-66.32 48.63a55.71 55.71 0 0 0-0.32 4.5l71.03-52.09c-1.44-0.4-2.9-0.75-4.39-1.04z" fill="#C6FCF4" p-id="5197"></path><path d="M673.8 548.95l-60.74 44.54c-0.32 1.58-0.57 3.19-0.75 4.82l66.32-48.63c-1.59-0.31-3.2-0.56-4.83-0.73z" fill="#C5FBF4" p-id="5198"></path><path d="M668.39 548.66l-53.99 39.59c-0.53 1.72-0.97 3.46-1.34 5.25l60.74-44.54c-1.78-0.19-3.58-0.29-5.41-0.3z" fill="#C3FBF3" p-id="5199"></path><path d="M667.94 548.64c-1.94 0-3.86 0.1-5.75 0.29l-45.62 33.45a55.4 55.4 0 0 0-2.17 5.86l53.99-39.59c-0.15 0.01-0.3-0.01-0.45-0.01z" fill="#C1FBF3" p-id="5200"></path><path d="M654.55 550.27l-34.41 25.23c-1.35 2.2-2.54 4.5-3.57 6.89l45.62-33.45c-2.61 0.27-5.15 0.72-7.64 1.33z" fill="#C0FBF3" p-id="5201"></path><path d="M642.79 554.63l-14.89 10.92a55.844 55.844 0 0 0-7.75 9.95l34.41-25.23a55.661 55.661 0 0 0-11.77 4.36z" fill="#BEFBF2" p-id="5202"></path><path d="M627.89 565.55l14.89-10.92a56.544 56.544 0 0 0-14.89 10.92z" fill="#BCFBF2" p-id="5203"></path></svg>